<svg width="78" height="75" viewBox="0 0 78 75" fill="none" xmlns="http://www.w3.org/2000/svg">
<path d="M27.3154 1.61687C18.6488 4.41687 13.8488 7.35021 8.7821 13.3502C2.7821 20.2835 2.51544 22.9502 8.3821 17.4835C15.1821 10.9502 20.9154 8.68354 30.6488 8.68354C36.9154 8.68354 40.9154 9.48354 44.9154 11.4835C50.9154 14.5502 55.9821 20.1502 55.9821 23.6169C55.9821 24.9502 55.0488 24.2835 53.3154 21.8835C47.7154 13.2169 33.9821 8.55021 23.5821 11.7502C4.7821 17.3502 -5.08456 37.2169 2.64877 54.0169C5.71544 60.8169 6.91544 61.4835 5.1821 55.4835C3.71544 50.0169 3.5821 40.4169 5.1821 44.2835C5.9821 46.2835 6.64877 44.8169 7.84877 38.6835C10.2488 26.5502 18.3821 18.2835 27.5821 18.5502L31.3154 18.6835L27.5821 19.7502C11.0488 24.6835 3.84877 46.9502 14.1154 61.3502C19.8488 69.4835 29.8488 74.4169 40.7821 74.4169C48.3821 74.4169 59.9821 71.3502 58.5154 69.7502C58.1154 69.4835 55.3154 69.8835 51.9821 70.5502C26.9154 76.1502 4.24877 48.1502 20.2488 31.3502C23.8488 27.6169 23.9821 27.4835 21.5821 30.8169C14.9154 39.8835 17.4488 54.4169 26.7821 61.3502C42.7821 73.3502 65.3154 66.9502 75.4488 47.7502C78.2488 42.4169 78.9154 26.0169 76.5154 22.0169C75.4488 20.1502 75.1821 21.7502 75.1821 28.9502C75.3154 34.5502 74.6488 38.9502 73.7154 39.8835C72.3821 41.2169 72.2488 40.5502 72.7821 36.8169C73.3154 34.0169 72.6488 28.9502 71.4488 24.4169C66.1154 6.41687 45.7154 -4.24979 27.3154 1.61687ZM48.3821 5.61687C59.9821 10.4169 66.9154 26.6835 62.1154 37.7502C60.5154 41.4835 60.3821 41.3502 61.0488 34.1502C61.3154 30.0169 61.1821 24.9502 60.7821 23.0835C59.5821 18.1502 50.7821 9.08354 44.6488 6.28354C38.5154 3.48354 41.8488 2.81687 48.3821 5.61687ZM65.3154 47.7502C61.7154 54.8169 55.8488 58.4169 47.5821 58.4169C42.2488 58.4169 33.3154 55.6169 33.3154 53.8835C33.3154 53.6169 36.3821 54.2835 40.1154 55.3502C46.2488 57.2169 47.4488 57.0835 52.9154 55.0835C58.9154 52.8169 66.5154 44.5502 66.7821 39.8835C66.9154 38.0169 67.0488 38.0169 67.5821 40.0169C67.8488 41.2169 66.9154 44.6835 65.3154 47.7502ZM50.2488 47.3502C49.7154 47.7502 49.3154 47.3502 49.3154 46.4169C49.3154 45.4835 49.7154 45.0835 50.2488 45.4835C50.6488 46.0169 50.6488 46.8169 50.2488 47.3502Z" fill="black"/>
</svg>
